<?xml version="1.0" encoding="UTF-8"?>
<svg xmlns="http://www.w3.org/2000/svg" xmlns:xlink="http://www.w3.org/1999/xlink" viewBox="0 0 18 18" width="18px" height="18px">
<g id="surface217635274">
<path style=" stroke:none;fill-rule:nonzero;fill:rgb(40.000001%,40.000001%,40.000001%);fill-opacity:1;" d="M 9 1.5 C 4.859375 1.5 1.5 4.859375 1.5 9 C 1.5 13.140625 4.859375 16.5 9 16.5 C 13.140625 16.5 16.5 13.140625 16.5 9 C 16.5 4.859375 13.140625 1.5 9 1.5 Z M 9 1.5 "/>
<path style=" stroke:none;fill-rule:nonzero;fill:rgb(12.156863%,12.156863%,12.156863%);fill-opacity:1;" d="M 12.730469 5.625 L 11.328125 12.796875 C 11.328125 12.796875 11.265625 13.125 10.859375 13.125 C 10.644531 13.125 10.53125 13.023438 10.53125 13.023438 L 7.488281 10.496094 L 6 9.746094 L 4.089844 9.238281 C 4.089844 9.238281 3.75 9.140625 3.75 8.859375 C 3.75 8.625 4.101562 8.511719 4.101562 8.511719 L 12.09375 5.335938 C 12.09375 5.335938 12.335938 5.25 12.515625 5.25 C 12.625 5.25 12.75 5.296875 12.75 5.4375 C 12.75 5.53125 12.730469 5.625 12.730469 5.625 Z M 12.730469 5.625 "/>
<path style=" stroke:none;fill-rule:nonzero;fill:rgb(12.156863%,12.156863%,12.156863%);fill-opacity:1;" d="M 8.625 11.4375 L 7.339844 12.703125 C 7.339844 12.703125 7.285156 12.746094 7.210938 12.75 C 7.183594 12.75 7.15625 12.746094 7.128906 12.734375 L 7.488281 10.496094 Z M 8.625 11.4375 "/>
<path style=" stroke:none;fill-rule:nonzero;fill:rgb(20%,20%,20%);fill-opacity:1;" d="M 11.210938 6.824219 C 11.148438 6.742188 11.03125 6.726562 10.949219 6.789062 L 6 9.75 C 6 9.75 6.789062 11.960938 6.910156 12.34375 C 7.03125 12.726562 7.128906 12.734375 7.128906 12.734375 L 7.488281 10.496094 L 11.175781 7.085938 C 11.257812 7.023438 11.273438 6.90625 11.210938 6.824219 Z M 11.210938 6.824219 "/>
</g>
</svg>
